<svg xmlns="http://www.w3.org/2000/svg" xmlns:xlink="http://www.w3.org/1999/xlink" width="500" zoomAndPan="magnify" viewBox="0 0 375 374.999991" height="500" preserveAspectRatio="xMidYMid meet" version="1.0"><defs><clipPath id="732946892d"><path d="M 74.945312 74.945312 L 299.945312 74.945312 L 299.945312 299.945312 L 74.945312 299.945312 Z M 74.945312 74.945312 " clip-rule="nonzero"/></clipPath><clipPath id="36fd01e5eb"><path d="M 187.5 74.945312 C 125.335938 74.945312 74.945312 125.335938 74.945312 187.5 C 74.945312 249.660156 125.335938 300.050781 187.5 300.050781 C 249.660156 300.050781 300.050781 249.660156 300.050781 187.5 C 300.050781 125.335938 249.660156 74.945312 187.5 74.945312 Z M 187.5 74.945312 " clip-rule="nonzero"/></clipPath><clipPath id="21bc75b215"><path d="M 187.5 165 L 191 165 L 191 210 L 187.5 210 Z M 187.5 165 " clip-rule="nonzero"/></clipPath><clipPath id="404eedb035"><path d="M 193 151.800781 L 197 151.800781 L 197 223.050781 L 193 223.050781 Z M 193 151.800781 " clip-rule="nonzero"/></clipPath><clipPath id="cb15c71527"><path d="M 124 175 L 187 175 L 187 223 L 124 223 Z M 124 175 " clip-rule="nonzero"/></clipPath><clipPath id="7b71abff03"><path d="M 130.308594 166.609375 L 215.171875 177.019531 L 204.667969 262.628906 L 119.804688 252.214844 Z M 130.308594 166.609375 " clip-rule="nonzero"/></clipPath><clipPath id="510cc754c7"><path d="M 128.570312 180.75 L 121.574219 237.792969 C 120.613281 245.605469 126.167969 252.714844 133.980469 253.671875 L 190.167969 260.566406 C 197.980469 261.523438 205.089844 255.96875 206.046875 248.15625 L 213.046875 191.117188 C 214.003906 183.304688 208.449219 176.195312 200.636719 175.238281 L 144.449219 168.34375 C 136.640625 167.382812 129.53125 172.941406 128.570312 180.75 Z M 128.570312 180.75 " clip-rule="nonzero"/></clipPath><clipPath id="fa60da221d"><path d="M 130.308594 166.609375 L 214.425781 176.929688 L 203.921875 262.539062 L 119.804688 252.214844 Z M 130.308594 166.609375 " clip-rule="nonzero"/></clipPath><clipPath id="e04d56b152"><path d="M 130.308594 166.609375 L 214.425781 176.929688 L 203.921875 262.539062 L 119.804688 252.214844 Z M 130.308594 166.609375 " clip-rule="nonzero"/></clipPath><clipPath id="dada1aaee2"><path d="M 142 214 L 207 214 L 207 258 L 142 258 Z M 142 214 " clip-rule="nonzero"/></clipPath><clipPath id="f513a1169d"><path d="M 130.308594 166.609375 L 215.171875 177.019531 L 204.667969 262.628906 L 119.804688 252.214844 Z M 130.308594 166.609375 " clip-rule="nonzero"/></clipPath><clipPath id="837c15d39c"><path d="M 128.570312 180.75 L 121.574219 237.792969 C 120.613281 245.605469 126.167969 252.714844 133.980469 253.671875 L 190.167969 260.566406 C 197.980469 261.523438 205.089844 255.96875 206.046875 248.15625 L 213.046875 191.117188 C 214.003906 183.304688 208.449219 176.195312 200.636719 175.238281 L 144.449219 168.34375 C 136.640625 167.382812 129.53125 172.941406 128.570312 180.75 Z M 128.570312 180.75 " clip-rule="nonzero"/></clipPath><clipPath id="088c82b9d3"><path d="M 130.308594 166.609375 L 214.425781 176.929688 L 203.921875 262.539062 L 119.804688 252.214844 Z M 130.308594 166.609375 " clip-rule="nonzero"/></clipPath><clipPath id="f9237c5751"><path d="M 130.308594 166.609375 L 214.425781 176.929688 L 203.921875 262.539062 L 119.804688 252.214844 Z M 130.308594 166.609375 " clip-rule="nonzero"/></clipPath><clipPath id="ce3f9a2765"><path d="M 124 174 L 205 174 L 205 249 L 124 249 Z M 124 174 " clip-rule="nonzero"/></clipPath><clipPath id="484201aa04"><path d="M 130.308594 166.609375 L 215.171875 177.019531 L 204.667969 262.628906 L 119.804688 252.214844 Z M 130.308594 166.609375 " clip-rule="nonzero"/></clipPath><clipPath id="061ffd1584"><path d="M 128.570312 180.75 L 121.574219 237.792969 C 120.613281 245.605469 126.167969 252.714844 133.980469 253.671875 L 190.167969 260.566406 C 197.980469 261.523438 205.089844 255.96875 206.046875 248.15625 L 213.046875 191.117188 C 214.003906 183.304688 208.449219 176.195312 200.636719 175.238281 L 144.449219 168.34375 C 136.640625 167.382812 129.53125 172.941406 128.570312 180.75 Z M 128.570312 180.75 " clip-rule="nonzero"/></clipPath><clipPath id="12283ede3a"><path d="M 130.308594 166.609375 L 214.425781 176.929688 L 203.921875 262.539062 L 119.804688 252.214844 Z M 130.308594 166.609375 " clip-rule="nonzero"/></clipPath><clipPath id="5be03c95b8"><path d="M 130.308594 166.609375 L 214.425781 176.929688 L 203.921875 262.539062 L 119.804688 252.214844 Z M 130.308594 166.609375 " clip-rule="nonzero"/></clipPath><clipPath id="e4b14b0d6d"><path d="M 85.597656 85.597656 L 289.398438 85.597656 L 289.398438 289.398438 L 85.597656 289.398438 Z M 85.597656 85.597656 " clip-rule="nonzero"/></clipPath><clipPath id="093f78d373"><path d="M 187.496094 85.597656 C 131.21875 85.597656 85.597656 131.21875 85.597656 187.496094 C 85.597656 243.773438 131.21875 289.398438 187.496094 289.398438 C 243.773438 289.398438 289.398438 243.773438 289.398438 187.496094 C 289.398438 131.21875 243.773438 85.597656 187.496094 85.597656 Z M 187.496094 85.597656 " clip-rule="nonzero"/></clipPath></defs><rect x="-37.5" width="450" fill="#ffffff" y="-37.499999" height="449.999989" fill-opacity="1"/><rect x="-37.5" width="450" fill="#ffffff" y="-37.499999" height="449.999989" fill-opacity="1"/><g clip-path="url(#732946892d)"><g clip-path="url(#36fd01e5eb)"><path stroke-linecap="butt" transform="matrix(0.75, 0, 0, 0.75, 74.945632, 74.945628)" fill="none" stroke-linejoin="miter" d="M 150.0725 -0.000420505 C 67.187078 -0.000420505 -0.000426505 67.187084 -0.000426505 150.072506 C -0.000426505 232.95272 67.187078 300.140224 150.0725 300.140224 C 232.952714 300.140224 300.140218 232.95272 300.140218 150.072506 C 300.140218 67.187084 232.952714 -0.000420505 150.0725 -0.000420505 Z M 150.0725 -0.000420505 " stroke="#000000" stroke-width="6" stroke-opacity="1" stroke-miterlimit="4"/></g></g><g clip-path="url(#21bc75b215)"><path fill="#0ca444" d="M 189.164062 165.78125 C 188.246094 165.78125 187.503906 166.523438 187.503906 167.441406 L 187.503906 207.582031 C 187.503906 208.496094 188.246094 209.238281 189.164062 209.238281 C 190.078125 209.238281 190.820312 208.496094 190.820312 207.582031 L 190.820312 167.441406 C 190.820312 166.523438 190.078125 165.78125 189.164062 165.78125 " fill-opacity="1" fill-rule="nonzero"/></g><g clip-path="url(#404eedb035)"><path fill="#0ca444" d="M 195.214844 151.8125 C 194.300781 151.8125 193.558594 152.554688 193.558594 153.46875 L 193.558594 221.550781 C 193.558594 222.464844 194.300781 223.207031 195.214844 223.207031 C 196.128906 223.207031 196.871094 222.464844 196.871094 221.550781 L 196.871094 153.46875 C 196.871094 152.554688 196.128906 151.8125 195.214844 151.8125 " fill-opacity="1" fill-rule="nonzero"/></g><path fill="#0ca444" d="M 201.269531 160.195312 C 200.351562 160.195312 199.609375 160.9375 199.609375 161.851562 L 199.609375 213.167969 C 199.609375 214.085938 200.351562 214.828125 201.269531 214.828125 C 202.183594 214.828125 202.925781 214.085938 202.925781 213.167969 L 202.925781 161.851562 C 202.925781 160.9375 202.183594 160.195312 201.269531 160.195312 " fill-opacity="1" fill-rule="nonzero"/><path fill="#0ca444" d="M 207.320312 165.78125 C 206.40625 165.78125 205.664062 166.523438 205.664062 167.441406 L 205.664062 207.582031 C 205.664062 208.496094 206.40625 209.238281 207.320312 209.238281 C 208.238281 209.238281 208.980469 208.496094 208.980469 207.582031 L 208.980469 167.441406 C 208.980469 166.523438 208.238281 165.78125 207.320312 165.78125 " fill-opacity="1" fill-rule="nonzero"/><path fill="#0ca444" d="M 213.375 176.960938 C 212.460938 176.960938 211.71875 177.703125 211.71875 178.617188 L 211.71875 196.402344 C 211.71875 197.320312 212.460938 198.0625 213.375 198.0625 C 214.292969 198.0625 215.035156 197.320312 215.035156 196.402344 L 215.035156 178.617188 C 215.035156 177.703125 214.292969 176.960938 213.375 176.960938 " fill-opacity="1" fill-rule="nonzero"/><path fill="#0ca444" d="M 219.429688 171.371094 C 218.515625 171.371094 217.773438 172.113281 217.773438 173.027344 L 217.773438 201.992188 C 217.773438 202.90625 218.515625 203.648438 219.429688 203.648438 C 220.34375 203.648438 221.085938 202.90625 221.085938 201.992188 L 221.085938 173.027344 C 221.085938 172.113281 220.34375 171.371094 219.429688 171.371094 " fill-opacity="1" fill-rule="nonzero"/><path fill="#0ca444" d="M 225.484375 179.753906 C 224.566406 179.753906 223.824219 180.496094 223.824219 181.410156 L 223.824219 193.609375 C 223.824219 194.523438 224.566406 195.265625 225.484375 195.265625 C 226.398438 195.265625 227.140625 194.523438 227.140625 193.609375 L 227.140625 181.410156 C 227.140625 180.496094 226.398438 179.753906 225.484375 179.753906 " fill-opacity="1" fill-rule="nonzero"/><path fill="#0ca444" d="M 231.535156 174.164062 C 230.621094 174.164062 229.878906 174.90625 229.878906 175.824219 L 229.878906 199.199219 C 229.878906 200.113281 230.621094 200.855469 231.535156 200.855469 C 232.449219 200.855469 233.195312 200.113281 233.195312 199.199219 L 233.195312 175.824219 C 233.195312 174.90625 232.449219 174.164062 231.535156 174.164062 " fill-opacity="1" fill-rule="nonzero"/><path fill="#0ca444" d="M 237.589844 165.78125 C 236.671875 165.78125 235.929688 166.523438 235.929688 167.441406 L 235.929688 207.582031 C 235.929688 208.496094 236.671875 209.238281 237.589844 209.238281 C 238.503906 209.238281 239.246094 208.496094 239.246094 207.582031 L 239.246094 167.441406 C 239.246094 166.523438 238.503906 165.78125 237.589844 165.78125 " fill-opacity="1" fill-rule="nonzero"/><path fill="#0ca444" d="M 243.644531 160.195312 C 242.726562 160.195312 241.984375 160.9375 241.984375 161.851562 L 241.984375 213.167969 C 241.984375 214.085938 242.726562 214.828125 243.644531 214.828125 C 244.558594 214.828125 245.300781 214.085938 245.300781 213.167969 L 245.300781 161.851562 C 245.300781 160.9375 244.558594 160.195312 243.644531 160.195312 " fill-opacity="1" fill-rule="nonzero"/><path fill="#0ca444" d="M 249.695312 165.78125 C 248.78125 165.78125 248.039062 166.523438 248.039062 167.441406 L 248.039062 207.582031 C 248.039062 208.496094 248.78125 209.238281 249.695312 209.238281 C 250.613281 209.238281 251.355469 208.496094 251.355469 207.582031 L 251.355469 167.441406 C 251.355469 166.523438 250.613281 165.78125 249.695312 165.78125 " fill-opacity="1" fill-rule="nonzero"/><path fill="#0ca444" d="M 255.75 176.960938 C 254.835938 176.960938 254.09375 177.703125 254.09375 178.617188 L 254.09375 196.402344 C 254.09375 197.320312 254.835938 198.0625 255.75 198.0625 C 256.664062 198.0625 257.40625 197.320312 257.40625 196.402344 L 257.40625 178.617188 C 257.40625 177.703125 256.664062 176.960938 255.75 176.960938 " fill-opacity="1" fill-rule="nonzero"/><path fill="#0ca444" d="M 261.804688 174.164062 C 260.886719 174.164062 260.144531 174.90625 260.144531 175.824219 L 260.144531 199.199219 C 260.144531 200.113281 260.886719 200.855469 261.804688 200.855469 C 262.71875 200.855469 263.460938 200.113281 263.460938 199.199219 L 263.460938 175.824219 C 263.460938 174.90625 262.71875 174.164062 261.804688 174.164062 " fill-opacity="1" fill-rule="nonzero"/><path fill="#0ca444" d="M 267.855469 168.578125 C 266.941406 168.578125 266.199219 169.320312 266.199219 170.234375 L 266.199219 204.785156 C 266.199219 205.703125 266.941406 206.445312 267.855469 206.445312 C 268.773438 206.445312 269.515625 205.703125 269.515625 204.785156 L 269.515625 170.234375 C 269.515625 169.320312 268.773438 168.578125 267.855469 168.578125 " fill-opacity="1" fill-rule="nonzero"/><path fill="#0ca444" d="M 273.910156 176.960938 C 272.996094 176.960938 272.253906 177.703125 272.253906 178.617188 L 272.253906 196.402344 C 272.253906 197.320312 272.996094 198.0625 273.910156 198.0625 C 274.824219 198.0625 275.566406 197.320312 275.566406 196.402344 L 275.566406 178.617188 C 275.566406 177.703125 274.824219 176.960938 273.910156 176.960938 " fill-opacity="1" fill-rule="nonzero"/><path fill="#0ca444" d="M 279.964844 179.753906 C 279.050781 179.753906 278.308594 180.496094 278.308594 181.410156 L 278.308594 193.609375 C 278.308594 194.523438 279.050781 195.265625 279.964844 195.265625 C 280.878906 195.265625 281.621094 194.523438 281.621094 193.609375 L 281.621094 181.410156 C 281.621094 180.496094 280.878906 179.753906 279.964844 179.753906 " fill-opacity="1" fill-rule="nonzero"/><path fill="#0ca444" d="M 286.015625 182.546875 C 285.101562 182.546875 284.359375 183.289062 284.359375 184.207031 L 284.359375 190.816406 C 284.359375 191.730469 285.101562 192.472656 286.015625 192.472656 C 286.933594 192.472656 287.675781 191.730469 287.675781 190.816406 L 287.675781 184.207031 C 287.675781 183.289062 286.933594 182.546875 286.015625 182.546875 " fill-opacity="1" fill-rule="nonzero"/><g clip-path="url(#cb15c71527)"><g clip-path="url(#7b71abff03)"><g clip-path="url(#510cc754c7)"><g clip-path="url(#fa60da221d)"><g clip-path="url(#e04d56b152)"><path fill="#ffffff" d="M 125.3125 221.980469 C 126.757812 219.886719 128.695312 218.082031 131.058594 216.621094 C 131.902344 216.101562 132.785156 215.632812 133.703125 215.21875 C 133.734375 214.292969 133.804688 213.359375 133.921875 212.421875 C 136.058594 194.996094 151.917969 182.601562 169.34375 184.738281 C 173.992188 185.308594 178.28125 186.855469 182.03125 189.148438 L 186.320312 181.058594 C 181.605469 178.265625 176.246094 176.378906 170.457031 175.667969 C 148.023438 172.914062 127.601562 188.871094 124.847656 211.308594 C 124.382812 215.105469 124.453125 218.839844 125 222.445312 C 125.101562 222.289062 125.203125 222.132812 125.3125 221.980469 " fill-opacity="1" fill-rule="nonzero"/></g></g></g></g></g><g clip-path="url(#dada1aaee2)"><g clip-path="url(#f513a1169d)"><g clip-path="url(#837c15d39c)"><g clip-path="url(#088c82b9d3)"><g clip-path="url(#f9237c5751)"><path fill="#ffffff" d="M 206.363281 214.367188 C 206.203125 216.46875 205.664062 218.449219 204.738281 220.296875 C 202.113281 225.542969 197.101562 228.230469 194.476562 229.332031 C 188.914062 241.710938 175.777344 249.585938 161.601562 247.84375 C 160.902344 247.757812 160.210938 247.648438 159.527344 247.519531 C 158.847656 247.878906 158.136719 248.210938 157.402344 248.507812 C 153.320312 250.167969 148.6875 250.785156 144.003906 250.289062 C 143.832031 250.273438 143.664062 250.253906 143.492188 250.234375 C 143.105469 250.1875 142.722656 250.132812 142.34375 250.070312 C 147.585938 253.664062 153.746094 256.089844 160.488281 256.917969 C 182.925781 259.671875 203.34375 243.714844 206.097656 221.277344 C 206.382812 218.945312 206.46875 216.636719 206.363281 214.367188 " fill-opacity="1" fill-rule="nonzero"/></g></g></g></g></g><g clip-path="url(#ce3f9a2765)"><g clip-path="url(#484201aa04)"><g clip-path="url(#061ffd1584)"><g clip-path="url(#12283ede3a)"><g clip-path="url(#5be03c95b8)"><path fill="#a359a0" d="M 202.644531 205.726562 C 198.074219 193.636719 192.523438 174.246094 192.523438 174.246094 L 165.242188 225.699219 C 162.164062 220.316406 155.617188 216.199219 147.6875 215.363281 C 136.035156 214.136719 125.816406 220.449219 124.867188 229.464844 C 123.917969 238.476562 132.59375 246.78125 144.242188 248.011719 C 153.148438 248.949219 161.21875 245.484375 164.949219 239.773438 L 165 239.800781 L 188.746094 195.023438 C 188.867188 200.8125 190.78125 202.894531 193.558594 206.339844 C 203.207031 218.304688 192.144531 227.746094 192.144531 227.746094 C 192.144531 227.746094 209.117188 222.84375 202.644531 205.726562 " fill-opacity="1" fill-rule="nonzero"/></g></g></g></g></g><g clip-path="url(#e4b14b0d6d)"><g clip-path="url(#093f78d373)"><path stroke-linecap="butt" transform="matrix(0.75, 0, 0, 0.75, 85.596371, 85.596366)" fill="none" stroke-linejoin="miter" d="M 135.866306 0.00171983 C 60.829843 0.00171983 0.00171383 60.829849 0.00171383 135.866312 C 0.00171383 210.902775 60.829843 271.736113 135.866306 271.736113 C 210.902769 271.736113 271.736107 210.902775 271.736107 135.866312 C 271.736107 60.829849 210.902769 0.00171983 135.866306 0.00171983 Z M 135.866306 0.00171983 " stroke="#000000" stroke-width="2" stroke-opacity="1" stroke-miterlimit="4"/></g></g></svg>